# xmcd
#
# Track frame offsets: 
#        150
#        12332
#        26985
#        44280
#        59381
#        72676
#        92390
#        107661
#        123794
#        137092
#        154013
#        169566
#        179758
#        193902
#        207932
#        224824
#        244172
#        257785
#        269896
#        291136
#        305365
#
# Disc length: 4526 seconds
#
# Revision: 0
# Processed by: cddbd v1.5.2PL0 Copyright (c) Steve Scherf et al.
# Submitted via: ExactAudioCopy v1.1
#
DISCID=4a11ac15
DTITLE=Mikko Alatalo - Suomalaisten Tunteiden Tulkki
DYEAR=2015
DGENRE=Oldies
TTITLE0=Maalaispoika Oon
TTITLE1=Hän Hymyilee Kuin Lapsi
TTITLE2=Per Vers, Runoilija
TTITLE3=Syli
TTITLE4=Kotisaunan Lauteilla
TTITLE5=Odysseus
TTITLE6=Hasardi
TTITLE7=Hengitä Sisko
TTITLE8=Enkeli (Lensi Huoneen Poikki)
TTITLE9=Hyvästi Mona
TTITLE10=(Missä Oot) VicKy Lee?
TTITLE11=Tunnetko Rakkauden?
TTITLE12=Nuoruuden Kultasiivet
TTITLE13=Rikoo On Riskillä Ruma
TTITLE14=Takaisin Keskiluokkaan
TTITLE15=Ihmisen Ikävä Toisen Luo
TTITLE16=Taitaa Tulla Kesä
TTITLE17=Jolsa Jätkä
TTITLE18=Alkukesän Pehmeinä Öinä
TTITLE19=Maailmanlopun Meininki
TTITLE20=Yhdentoista Virran Maa
EXTD=
EXTT0=
EXTT1=
EXTT2=
EXTT3=
EXTT4=
EXTT5=
EXTT6=
EXTT7=
EXTT8=
EXTT9=
EXTT10=
EXTT11=
EXTT12=
EXTT13=
EXTT14=
EXTT15=
EXTT16=
EXTT17=
EXTT18=
EXTT19=
EXTT20=
PLAYORDER=
